<?xml version="1.0" encoding="iso-8859-1"?>
<!-- Generator: Adobe Illustrator 19.0.0, SVG Export Plug-In . SVG Version: 6.00 Build 0)  -->
<svg version="1.1" id="Capa_1" xmlns="http://www.w3.org/2000/svg" xmlns:xlink="http://www.w3.org/1999/xlink" x="0px" y="0px"
	 viewBox="0 0 512 512" style="enable-background:new 0 0 512 512;" xml:space="preserve">
<g>
	<g>
		<path d="M112,240H96v-32h16c8.832,0,16-7.168,16-16c0-8.832-7.168-16-16-16H80c-8.832,0-16,7.168-16,16v128
			c0,8.832,7.168,16,16,16c8.832,0,16-7.168,16-16v-48h16c8.832,0,16-7.168,16-16C128,247.168,120.832,240,112,240z"/>
	</g>
</g>
<g>
	<g>
		<path d="M336,272c8.832,0,16-7.168,16-16c0-8.832-7.168-16-16-16h-16v-32h16c8.832,0,16-7.168,16-16c0-8.832-7.168-16-16-16h-32
			c-8.832,0-16,7.168-16,16v128c0,8.832,7.168,16,16,16h32c8.832,0,16-7.168,16-16c0-8.832-7.168-16-16-16h-16v-32H336z"/>
	</g>
</g>
<g>
	<g>
		<path d="M432,272c8.832,0,16-7.168,16-16c0-8.832-7.168-16-16-16h-16v-32h16c8.832,0,16-7.168,16-16c0-8.832-7.168-16-16-16h-32
			c-8.832,0-16,7.168-16,16v128c0,8.832,7.168,16,16,16h32c8.832,0,16-7.168,16-16c0-8.832-7.168-16-16-16h-16v-32H432z"/>
	</g>
</g>
<g>
	<g>
		<path d="M222.208,269.6C241.696,263.52,256,245.504,256,224c0-26.464-21.536-48-48-48h-32c-8.832,0-16,7.168-16,16v128
			c0,8.832,7.168,16,16,16c8.832,0,16-7.168,16-16v-37.344l35.2,46.944c3.136,4.192,7.936,6.4,12.8,6.4
			c3.328,0,6.688-1.056,9.568-3.2c7.072-5.312,8.512-15.328,3.2-22.4L222.208,269.6z M208,240h-16v-32h16c8.832,0,16,7.168,16,16
			C224,232.832,216.832,240,208,240z"/>
	</g>
</g>
<g>
	<g>
		<path d="M256,0C114.848,0,0,114.848,0,256s114.848,256,256,256s256-114.848,256-256S397.152,0,256,0z M256,480
			C132.48,480,32,379.52,32,256S132.48,32,256,32s224,100.48,224,224S379.52,480,256,480z"/>
	</g>
</g>
<g>
	<g>
		<path d="M391.776,120.224c-74.88-74.88-196.672-74.88-271.52,0c-6.24,6.24-6.24,16.384,0,22.624c6.24,6.24,16.352,6.272,22.592,0
			c62.368-62.368,163.904-62.368,226.272,0c3.136,3.136,7.232,4.672,11.328,4.672s8.192-1.568,11.328-4.672
			C398.016,136.608,398.016,126.464,391.776,120.224z"/>
	</g>
</g>
<g>
	<g>
		<path d="M391.808,369.152c-6.24-6.24-16.416-6.272-22.656,0c-62.368,62.368-163.904,62.368-226.272,0
			c-6.24-6.24-16.384-6.24-22.624,0c-6.24,6.24-6.24,16.384,0,22.624c37.44,37.44,86.592,56.128,135.776,56.128
			c49.184,0,98.336-18.688,135.776-56.128C398.048,385.536,398.048,375.392,391.808,369.152z"/>
	</g>
</g>
<g>
</g>
<g>
</g>
<g>
</g>
<g>
</g>
<g>
</g>
<g>
</g>
<g>
</g>
<g>
</g>
<g>
</g>
<g>
</g>
<g>
</g>
<g>
</g>
<g>
</g>
<g>
</g>
<g>
</g>
</svg>
